<svg width="24" height="24" viewBox="0 0 24 24" fill="none" xmlns="http://www.w3.org/2000/svg">
<path d="M12 2.75C8.30998 2.75 5.29999 5.76 5.29999 9.45C5.29999 14.03 11.3 20.77 11.55 21.05C11.79 21.32 12.21 21.32 12.45 21.05C12.71 20.77 18.7 14.03 18.7 9.45C18.7 5.76 15.69 2.75 12 2.75Z" stroke="#D67AB1" stroke-width="1.5" stroke-linecap="round" stroke-linejoin="round"/>
<path d="M12.3849 11.7852C13.6776 11.5795 14.5587 10.3647 14.353 9.07204C14.1472 7.77936 12.9325 6.89824 11.6398 7.104C10.3471 7.30976 9.466 8.52449 9.67176 9.81717C9.87752 11.1099 11.0922 11.991 12.3849 11.7852Z" stroke="#D67AB1" stroke-width="1.5" stroke-linecap="round" stroke-linejoin="round"/>
</svg>
